# xmcd
# Track frame offsets:
# 150
# 11943
# 28671
# 40705
# 54502
# 66354
# 80796
# 93437
# 112185
# 123183
# 137192
# 153614
#
# Disc length: 2260 seconds
# Revision: 0
# Processed by: cddbd v1.5.2PL0 Copyright (c) Steve Scherf et al.
# Submitted via: VisiTrax 2.11.2.271 - For more info visit www.synapsa.com
#
DISCID=a908d20c
DTITLE=Conni Smith - Long Line Of Hearaches
DYEAR=2011
DGENRE=
TTITLE0=Long Line Of Heartaches
TTITLE1=I´m Not Blue
TTITLE2=Pain Of A Broken Heart
TTITLE3=Ain´t You Ever Gonna Cry
TTITLE4=I Don´t Believe That´s How You Feel
TTITLE5=A heart Like You
TTITLE6=Anymore
TTITLE7=That Makes Tow Of Us
TTITLE8=You And Me
TTITLE9=My Part Of Forever
TTITLE10=Blue Heartaches
TTITLE11=Take My Hand
EXTD=
EXTT0=
EXTT1=
EXTT2=
EXTT3=
EXTT4=
EXTT5=
EXTT6=
EXTT7=
EXTT8=
EXTT9=
EXTT10=
EXTT11=
PLAYORDER=
